<?xml version="1.0" encoding="UTF-8" standalone="no"?>
<!-- Created with Inkscape (http://www.inkscape.org/) -->

<svg
   width="60mm"
   height="60mm"
   viewBox="0 0 60 60"
   version="1.1"
   id="svg1"
   xml:space="preserve"
   inkscape:version="1.4.2 (f4327f4, 2025-05-13)"
   sodipodi:docname="logo.svg"
   xmlns:inkscape="http://www.inkscape.org/namespaces/inkscape"
   xmlns:sodipodi="http://sodipodi.sourceforge.net/DTD/sodipodi-0.dtd"
   xmlns="http://www.w3.org/2000/svg"
   xmlns:svg="http://www.w3.org/2000/svg"><sodipodi:namedview
     id="namedview1"
     pagecolor="#ffffff"
     bordercolor="#000000"
     borderopacity="0.25"
     inkscape:showpageshadow="2"
     inkscape:pageopacity="0.0"
     inkscape:pagecheckerboard="0"
     inkscape:deskcolor="#d1d1d1"
     inkscape:document-units="mm"
     inkscape:zoom="3.8954759"
     inkscape:cx="143.62815"
     inkscape:cy="96.65058"
     inkscape:window-width="1920"
     inkscape:window-height="991"
     inkscape:window-x="-9"
     inkscape:window-y="-9"
     inkscape:window-maximized="1"
     inkscape:current-layer="layer1" /><defs
     id="defs1" /><g
     inkscape:label="Layer 1"
     inkscape:groupmode="layer"
     id="layer1"
     transform="translate(-66.176826,-45.613667)"><path
       style="fill:#000000"
       d="M 94.653389,99.069073 C 94.019323,99.031672 92.67929,98.86892 92.045967,98.752393 85.500734,97.548115 79.791383,93.799243 76.1709,88.32851 75.427935,87.205853 75.089391,86.609811 74.500204,85.387079 71.790413,79.763489 71.486656,72.976505 73.680963,67.082427 c 1.9965,-5.362752 5.738639,-9.747754 10.747817,-12.594184 5.841716,-3.319516 13.013082,-4.011264 19.48242,-1.879272 3.68505,1.21442 6.95506,3.267563 9.7287,6.108354 0.95954,0.982771 1.58578,1.72773 2.32789,2.769192 1.41001,1.978789 2.43615,3.983953 3.18155,6.216993 0.59712,1.788844 0.90084,3.171742 1.14534,5.214844 0.13743,1.148436 0.1395,3.557339 0.004,4.775391 -0.49042,4.411716 -2.07211,8.368943 -4.77506,11.946663 -1.46113,1.933995 -3.67363,4.022313 -5.66525,5.347272 -3.49182,2.322983 -7.30889,3.670463 -11.426402,4.033679 -0.886189,0.07817 -2.84335,0.102886 -3.778679,0.04771 z m 4.248047,-0.453276 c 4.675204,-0.543387 8.992474,-2.384547 12.568364,-5.359961 3.1897,-2.654078 5.63691,-6.09947 7.07896,-9.966388 0.94495,-2.533888 1.41734,-5.168293 1.41693,-7.901766 -5.7e-4,-3.779967 -0.75629,-7.013394 -2.43275,-10.408781 -1.18699,-2.404063 -2.57142,-4.334703 -4.44546,-6.199354 -3.97684,-3.956934 -9.04698,-6.338513 -14.625497,-6.869979 -1.84906,-0.176161 -4.375168,-0.07015 -6.328125,0.265559 -7.981631,1.372036 -14.88934,7.009322 -17.843197,14.561586 -0.759642,1.942214 -1.173385,3.574005 -1.474894,5.816948 -0.145146,1.079741 -0.144087,4.273909 0.0018,5.462349 0.654412,5.330696 2.951444,10.010042 6.787095,13.826179 3.99166,3.971351 9.21986,6.375966 14.902234,6.85401 0.88516,0.07447 3.468768,0.0272 4.394531,-0.0804 z m -3.984375,-0.484929 c -3.144629,-0.172039 -6.275224,-1.04097 -9.161718,-2.542935 -2.847131,-1.481482 -5.385303,-3.547339 -7.312623,-5.951855 -2.780515,-3.468959 -4.372025,-7.173816 -4.97909,-11.590771 -0.148231,-1.078512 -0.14873,-4.146625 -8.72e-4,-5.361328 0.561225,-4.610651 2.437084,-8.823784 5.491593,-12.333984 0.695243,-0.798965 1.998284,-2.063663 2.784263,-2.702336 3.038234,-2.468814 6.685163,-4.155075 10.424541,-4.82008 1.483959,-0.263906 2.272178,-0.326104 4.130859,-0.325968 2.389101,1.75e-4 3.835976,0.168546 5.800786,0.675029 7.36348,1.898144 13.33352,7.302008 15.91921,14.409513 2.08953,5.743665 1.73607,12.270225 -0.95594,17.650822 -2.31369,4.624466 -5.88966,8.218092 -10.45156,10.503184 -3.60447,1.805512 -7.568244,2.616177 -11.689449,2.390709 z m 3.222656,-0.137252 c 4.664933,-0.399717 8.861733,-2.072791 12.568363,-5.010439 0.9143,-0.724623 2.74446,-2.535127 3.43175,-3.394901 3.26989,-4.090497 4.95774,-8.606811 5.10221,-13.652344 0.15707,-5.485674 -1.66704,-10.776117 -5.17127,-14.998143 -2.79673,-3.369608 -6.28938,-5.774941 -10.45254,-7.198484 -1.30261,-0.445414 -2.74626,-0.766803 -4.57031,-1.01746 -1.079072,-0.148283 -4.279479,-0.14792 -5.419922,6.15e-4 -3.754103,0.488947 -6.845649,1.615888 -9.873047,3.598958 -5.738144,3.758721 -9.402139,9.705665 -10.207552,16.567639 -0.117822,1.003822 -0.09646,4.316529 0.03382,5.244141 0.887906,6.3222 4.104533,11.723958 9.236237,15.510633 3.303912,2.437949 7.31053,3.950227 11.513672,4.345777 0.763398,0.07184 2.989593,0.07418 3.808594,0.004 z M 81.663964,83.647357 c -0.24014,-0.150837 -0.321122,-0.307559 -0.321122,-0.621462 0,-0.326571 0.13271,-0.522894 0.435308,-0.64397 0.282284,-0.112948 0.565583,-0.08014 0.712809,0.08254 0.132727,0.146663 0.01825,0.217443 -0.155192,0.09596 -0.174821,-0.122449 -0.471619,-0.115422 -0.632657,0.01498 -0.09496,0.07689 -0.139185,0.18905 -0.16001,0.405785 -0.02538,0.264125 -0.01095,0.317348 0.122075,0.450377 0.176765,0.176764 0.468614,0.201041 0.675427,0.05618 0.179717,-0.125879 0.288778,-0.02399 0.129049,0.120564 -0.177821,0.160925 -0.580574,0.180445 -0.805687,0.03905 z m 1.852105,-0.06043 c -0.164144,-0.164144 -0.171274,-0.193415 -0.171274,-0.703125 0,-0.433694 0.01622,-0.531851 0.08789,-0.531851 0.07105,0 0.08789,0.09295 0.08789,0.485009 0,0.586004 0.08147,0.74546 0.38086,0.74546 0.299393,0 0.380859,-0.159456 0.380859,-0.74546 0,-0.392057 0.01684,-0.485009 0.08789,-0.485009 0.07167,0 0.08789,0.09816 0.08789,0.531851 0,0.50971 -0.0071,0.538981 -0.171274,0.703125 -0.126802,0.126803 -0.226863,0.171274 -0.385366,0.171274 -0.158504,0 -0.258564,-0.04447 -0.385367,-0.171274 z m 1.820914,-0.531851 c 0,-0.585938 0.01465,-0.703125 0.08789,-0.703125 0.07254,0 0.08789,0.107422 0.08789,0.615234 v 0.615235 h 0.322266 c 0.247395,0 0.322265,0.02042 0.322265,0.08789 0,0.06976 -0.08464,0.08789 -0.410156,0.08789 h -0.410156 z m 1.536282,-0.0099 c 0.01168,-0.506177 0.0377,-0.72004 0.08969,-0.737304 0.056,-0.01859 0.07324,0.149235 0.07324,0.712986 0,0.622908 -0.01392,0.737305 -0.08969,0.737305 -0.07652,0 -0.08728,-0.104747 -0.07324,-0.712987 z m 1.041843,0.01332 c 0,-0.384817 0.02424,-0.714649 0.05387,-0.732961 0.07056,-0.04361 0.184196,0.07425 0.583112,0.604717 l 0.329815,0.438582 0.01693,-0.508461 c 0.01329,-0.399156 0.03533,-0.50846 0.102539,-0.50846 0.07033,0 0.08561,0.125514 0.08561,0.703125 0,0.536027 -0.01801,0.703125 -0.07579,0.703125 -0.04168,0 -0.229955,-0.210782 -0.418384,-0.468404 -0.507915,-0.694429 -0.501923,-0.693639 -0.501923,-0.06611 0,0.436064 -0.01619,0.534518 -0.08789,0.534518 -0.07322,0 -0.08789,-0.116803 -0.08789,-0.699667 z m 1.956919,0.509237 c 0.04524,-0.104736 0.17056,-0.420889 0.278489,-0.702562 0.243388,-0.635199 0.340208,-0.665858 0.556901,-0.176344 0.319967,0.722813 0.430578,1.069336 0.341335,1.069336 -0.04607,0 -0.124665,-0.0791 -0.17466,-0.175781 -0.08447,-0.163344 -0.113957,-0.175782 -0.416751,-0.175782 -0.308249,0 -0.329434,0.0095 -0.3922,0.175782 -0.03956,0.104811 -0.108545,0.175781 -0.17086,0.175781 -0.09572,0 -0.09759,-0.01602 -0.02225,-0.19043 z m 0.823255,-0.463646 c -0.09997,-0.314967 -0.213976,-0.528884 -0.256654,-0.481565 -0.02562,0.02841 -0.07386,0.130758 -0.107186,0.227438 -0.03333,0.09668 -0.0793,0.221923 -0.102157,0.27832 -0.03606,0.08896 -0.0053,0.102539 0.23233,0.102539 0.254101,0 0.270984,-0.0092 0.233667,-0.126732 z m 1.145607,-0.04905 v -0.703125 l 0.27832,-0.0067 c 0.435512,-0.01056 0.505382,0.0052 0.620067,0.13992 0.133193,0.156451 0.09293,0.437079 -0.08376,0.583809 l -0.122524,0.101747 0.180752,0.293761 c 0.164346,0.267096 0.170472,0.293761 0.06749,0.293761 -0.07491,0 -0.16897,-0.09918 -0.277778,-0.292909 -0.135104,-0.240548 -0.193318,-0.29292 -0.325646,-0.292969 -0.154305,-5.7e-5 -0.161133,0.01235 -0.161133,0.292909 0,0.221354 -0.02148,0.292969 -0.08789,0.292969 -0.07324,0 -0.08789,-0.117188 -0.08789,-0.703125 z m 0.728324,-0.187712 c 0.137277,-0.19599 0.0028,-0.363667 -0.310232,-0.386946 l -0.242311,-0.01802 v 0.267041 0.267041 h 0.231053 c 0.171746,0 0.254266,-0.03314 0.32149,-0.129118 z m 1.439645,0.597166 c 0,-0.251694 -0.03898,-0.3523 -0.272736,-0.703827 -0.150004,-0.225586 -0.259247,-0.423645 -0.242761,-0.44013 0.06675,-0.06675 0.203481,0.05031 0.388512,0.332645 l 0.195281,0.297971 0.1818,-0.295628 c 0.09999,-0.162595 0.229643,-0.308139 0.288117,-0.32343 0.149883,-0.03919 0.136172,0.0037 -0.128057,0.400679 -0.204938,0.307897 -0.234025,0.393409 -0.234189,0.688477 -1.44e-4,0.260334 -0.02016,0.336914 -0.08808,0.336914 -0.06643,0 -0.08789,-0.07169 -0.08789,-0.293671 z m 3.645657,-0.409659 c 0.02096,-0.896165 0.127397,-0.968647 0.15027,-0.102334 l 0.01663,0.629883 h 0.320283 c 0.245634,0 0.320284,0.02048 0.320284,0.08789 0,0.06979 -0.08484,0.08789 -0.41196,0.08789 h -0.41196 z m 1.569186,-0.02725 c 0,-0.625334 0.01266,-0.725724 0.08789,-0.696856 0.07131,0.02736 0.08789,0.165207 0.08789,0.730583 0,0.580365 -0.01469,0.696856 -0.08789,0.696856 -0.07343,0 -0.08789,-0.120239 -0.08789,-0.730583 z m 1.054689,0.03593 v -0.694652 l 0.38882,-0.03631 c 0.39129,-0.03654 0.49009,-0.02013 0.49009,0.08142 0,0.03032 -0.15821,0.05513 -0.35157,0.05513 h -0.35156 v 0.231313 0.231313 l 0.30762,0.01771 c 0.16919,0.0097 0.30761,0.04408 0.30761,0.0763 0,0.03223 -0.13842,0.06656 -0.30761,0.0763 l -0.30762,0.01771 v 0.319203 c 0,0.244674 -0.0205,0.319204 -0.0879,0.319204 -0.0732,0 -0.0879,-0.116246 -0.0879,-0.694652 z m 1.64062,-0.0085 v -0.703125 h 0.43946 c 0.2539,0 0.43945,0.02474 0.43945,0.05859 0,0.03255 -0.15625,0.05859 -0.35156,0.05859 h -0.35156 v 0.234375 0.234375 h 0.32714 c 0.43005,0 0.40993,0.138821 -0.0238,0.164183 -0.26533,0.01551 -0.3071,0.03538 -0.33863,0.161002 -0.0661,0.263528 0.001,0.319347 0.38499,0.319347 0.27507,0 0.3534,0.01948 0.3534,0.08789 0,0.07031 -0.0879,0.08789 -0.43945,0.08789 h -0.43946 z m 1.73671,0.607631 c -0.11206,-0.06071 -0.14812,-0.110276 -0.10883,-0.149566 0.0393,-0.03929 0.0984,-0.03755 0.17839,0.0053 0.16916,0.09053 0.45177,0.07941 0.53515,-0.02105 0.13073,-0.157522 0.0413,-0.286288 -0.28531,-0.41094 -0.34251,-0.130708 -0.45415,-0.279441 -0.3929,-0.523461 0.0473,-0.188584 0.40543,-0.312462 0.65896,-0.227954 0.16913,0.05638 0.24417,0.242298 0.0802,0.198645 -0.25767,-0.06858 -0.42038,-0.07036 -0.49859,-0.0055 -0.15753,0.130743 -0.0923,0.238206 0.2317,0.381476 0.4639,0.205161 0.5799,0.497723 0.28828,0.727108 -0.18156,0.142813 -0.45245,0.153044 -0.68703,0.02595 z m 1.94203,-0.534389 -0.0166,-0.629883 -0.21972,-0.01818 c -0.43188,-0.03574 -0.20996,-0.128299 0.30761,-0.128299 0.3125,0 0.52735,0.02387 0.52735,0.05859 0,0.03223 -0.0923,0.05859 -0.20508,0.05859 h -0.20508 v 0.644532 c 0,0.527244 -0.0156,0.644531 -0.0859,0.644531 -0.0691,0 -0.0891,-0.123071 -0.10254,-0.629883 z m 1.71189,0.304402 c 0,-0.283143 -0.0305,-0.370375 -0.23438,-0.670613 -0.2616,-0.385235 -0.2706,-0.410156 -0.14804,-0.410156 0.0475,0 0.17744,0.135285 0.2888,0.300635 l 0.20246,0.300635 0.18498,-0.300635 c 0.10174,-0.16535 0.22227,-0.300635 0.26785,-0.300635 0.11669,0 0.11047,0.01774 -0.15151,0.432572 -0.19494,0.308658 -0.23438,0.421806 -0.23438,0.672392 0,0.228747 -0.0212,0.301286 -0.0879,0.301286 -0.0676,0 -0.0879,-0.07523 -0.0879,-0.325481 z m 1.40625,-0.377644 c 0,-0.585938 0.0147,-0.703125 0.0879,-0.703125 0.0725,0 0.0879,0.107422 0.0879,0.615234 v 0.615235 h 0.32227 c 0.24739,0 0.32226,0.02042 0.32226,0.08789 0,0.06976 -0.0846,0.08789 -0.41015,0.08789 h -0.41016 z m 1.58203,0 v -0.703125 h 0.43945 c 0.25391,0 0.43946,0.02474 0.43946,0.05859 0,0.03255 -0.15625,0.05859 -0.35157,0.05859 h -0.35156 v 0.234375 0.234375 h 0.32227 c 0.24739,0 0.32226,0.02042 0.32226,0.08789 0,0.06747 -0.0749,0.08789 -0.32226,0.08789 h -0.32227 v 0.234375 0.234375 h 0.35156 c 0.27344,0 0.35157,0.01953 0.35157,0.08789 0,0.07031 -0.0879,0.08789 -0.43946,0.08789 h -0.43945 z m -14.347219,0.09783 c -0.09956,-0.119965 -0.01788,-0.28331 0.131044,-0.262061 0.08867,0.01265 0.124378,0.05957 0.124378,0.163428 0,0.167154 -0.150366,0.225219 -0.255422,0.09863 z m 11.622609,-4.312661 c -1.10246,-0.180896 -2.07769,-0.736091 -2.66302,-1.516046 -1.31733,-1.755348 -0.68525,-4.255227 1.32289,-5.232004 0.59731,-0.290542 1.11638,-0.40199 1.87829,-0.403289 0.80943,-0.0014 1.34161,0.11779 2.01067,0.450244 0.46576,0.231435 0.64286,0.363069 1.08474,0.806221 0.7187,0.720773 0.98713,1.277107 1.05737,2.19148 0.10867,1.414565 -0.60502,2.676845 -1.85505,3.280983 -0.27068,0.130817 -0.66353,0.279382 -0.873,0.330143 -0.44948,0.108923 -1.54698,0.160512 -1.96289,0.09227 z m 1.38872,-0.186415 c 0.50324,-0.105846 0.89299,-0.321892 1.21365,-0.672738 0.60485,-0.661801 0.85636,-1.518341 0.81335,-2.769866 -0.0218,-0.635157 -0.0509,-0.812983 -0.20512,-1.253747 -0.31049,-0.887468 -0.97772,-1.616298 -1.76381,-1.926633 -0.26832,-0.105928 -0.45401,-0.132272 -0.94997,-0.134772 -0.58046,-0.0029 -0.63911,0.008 -1.00409,0.187715 -0.88273,0.434567 -1.37337,1.253845 -1.51349,2.527237 -0.11332,1.029835 0.0619,1.993523 0.49783,2.737308 0.60088,1.025328 1.76407,1.546867 2.91165,1.305496 z m -25.529344,0.123249 c -1.61339,-0.294268 -2.923653,-1.540445 -3.14127,-2.987628 -0.121616,-0.808767 0.0331,-1.702408 0.40538,-2.341514 0.281726,-0.483646 0.931174,-1.072367 1.479527,-1.341182 0.693933,-0.340183 1.123877,-0.437744 1.930191,-0.437991 1.255092,-3.83e-4 2.077578,0.332574 2.933701,1.187618 0.812405,0.811381 1.071074,1.400388 1.06937,2.435022 -8.94e-4,0.543018 -0.0257,0.71677 -0.15748,1.103193 -0.373606,1.095515 -1.094751,1.797711 -2.283161,2.223165 -0.410988,0.147135 -0.581712,0.174208 -1.210868,0.192019 -0.402832,0.0114 -0.864257,-0.0033 -1.02539,-0.0327 z m 1.787109,-0.265051 c 1.011737,-0.397925 1.57844,-1.503232 1.581014,-3.083634 0.0014,-0.835189 -0.11943,-1.435294 -0.405885,-2.016494 -0.306485,-0.621841 -0.744463,-1.079056 -1.273846,-1.329794 -0.37124,-0.175835 -0.442693,-0.18914 -1.015796,-0.18914 -0.578685,0 -0.640476,0.01182 -1.008222,0.192861 -0.977003,0.480977 -1.510077,1.571214 -1.510077,3.088389 0,1.180058 0.287806,2.04435 0.901486,2.707198 0.526552,0.568739 1.108667,0.792015 1.969607,0.755463 0.289709,-0.0123 0.608344,-0.06453 0.761719,-0.124849 z m 4.042969,-3.010688 c 0,-2.951723 -0.0055,-3.113506 -0.115105,-3.369141 l -0.115105,-0.268529 0.715691,0.0038 0.715691,0.0038 1.171875,1.501739 c 0.644531,0.825957 1.547607,1.974111 2.006836,2.551455 l 0.834961,1.049715 v -2.570343 -2.570343 l 0.263672,0.02097 0.263671,0.02097 v 3.36324 3.363241 l -0.36621,-2.86e-4 -0.366211,-2.86e-4 -0.9375,-1.206628 c -0.515625,-0.663646 -1.089241,-1.405774 -1.274701,-1.649173 -0.18546,-0.243399 -0.765538,-0.980354 -1.289062,-1.637678 l -0.951862,-1.195134 -0.01521,2.844592 -0.01521,2.844593 h -0.263115 -0.263114 z m 7.499146,3.004409 c -4.69e-4,-0.05988 -0.01033,-1.581276 -0.02192,-3.380874 l -0.02106,-3.271999 1.618597,0.02519 c 1.423491,0.02216 1.675103,0.04042 2.087343,0.151539 1.36129,0.366911 2.36464,1.23054 2.63484,2.267931 0.10594,0.406736 0.11971,1.459773 0.025,1.91383 -0.2291,1.098598 -1.05347,1.873046 -2.36689,2.223547 -0.41408,0.110502 -0.67205,0.128276 -2.211912,0.1524 -1.669321,0.02615 -1.7432,0.0227 -1.744018,-0.08157 z m 3.66148,-0.313334 c 0.74018,-0.287717 1.23987,-0.982796 1.40655,-1.956538 0.3661,-2.13878 -0.47128,-3.689472 -2.188934,-4.053554 -0.213404,-0.04523 -0.684639,-0.0827 -1.047187,-0.08326 l -0.65918,-0.001 v 3.095703 c 0,1.702636 0.01977,3.115882 0.04394,3.140546 0.02417,0.02466 0.505371,0.03345 1.069336,0.01952 0.896098,-0.02213 1.06953,-0.04248 1.37547,-0.161402 z M 80.415108,68.763304 c 0,-0.02954 0.191162,-0.07032 0.424804,-0.09063 0.73487,-0.06389 31.096968,-0.009 31.113278,0.05623 0.01,0.03893 -5.2808,0.06355 -15.761715,0.07335 -9.531164,0.0089 -15.776367,-0.0065 -15.776367,-0.03895 z m 15.207171,-1.825081 c -0.900039,-0.138939 -1.590075,-0.494635 -2.260849,-1.16541 -1.117908,-1.117907 -1.475108,-2.596222 -0.984668,-4.075162 0.385457,-1.162363 1.391534,-2.141791 2.590754,-2.522132 1.017664,-0.322759 2.023164,-0.240851 3.025717,0.246474 0.462524,0.224826 0.637529,0.352117 1.035049,0.75285 0.394344,0.39753 0.524625,0.578845 0.74142,1.031839 0.337358,0.704921 0.416968,1.051602 0.415448,1.809328 -0.002,1.195826 -0.505248,2.266431 -1.420511,3.02431 -0.857103,0.70972 -2.086243,1.060937 -3.14236,0.897903 z m 1.465089,-0.260225 c 0.900914,-0.227051 1.807065,-0.87255 2.313131,-1.647767 0.427538,-0.654922 0.555624,-1.126007 0.555624,-2.043518 0,-0.647098 -0.0213,-0.82675 -0.141552,-1.193889 -0.383583,-1.171113 -1.468391,-2.181829 -2.680679,-2.49759 -0.443736,-0.115578 -1.473598,-0.114744 -1.920103,0.0016 -0.983498,0.256169 -1.952975,1.034394 -2.425559,1.947062 -0.811694,1.567565 -0.425699,3.495144 0.925881,4.62367 0.436726,0.364652 1.051327,0.681981 1.558407,0.804632 0.465534,0.112602 1.379565,0.115545 1.81485,0.0058 z"
       id="path1" /></g></svg>
